PathFileType	4	(X/Y/Z)	Patient4_TMGait_0pt2_02_left_12.trc.trc
DataRate	CameraRate	NumFrames	NumMarkers	Units	OrigDataRate	OrigDataStartFrame	OrigNumFrames
48.109965635739	48.109965635739	5	33	mm	48.109965635739	1	       141
Frame#	Time	R.Midfoot.Superior			Sacral			L.Shoulder			Chest			R.Shoulder			Neck			R.ASIS			L.ASIS			R.Thigh.Superior			R.Thigh.Lateral			R.Thigh.Inferior			R.Patella			L.Thigh.Superior			L.Thigh.Lateral			L.Thigh.Inferior			L.Patella			L.Shank.Superior			L.Shank.Lateral			L.Shank.Inferior			R.Shank.Superior			R.Shank.Lateral			R.Shank.Inferior			R.Heel			R.Midfoot.Lateral			R.Toe			L.Heel			L.Midfoot.Lateral			L.Midfoot.Superior			L.Toe			L.Elbow			L.Wrist			R.Elbow			R.Wrist			
		X1	Y1	Z1	X2	Y2	Z2	X3	Y3	Z3	X4	Y4	Z4	X5	Y5	Z5	X6	Y6	Z6	X7	Y7	Z7	X8	Y8	Z8	X9	Y9	Z9	X10	Y10	Z10	X11	Y11	Z11	X12	Y12	Z12	X13	Y13	Z13	X14	Y14	Z14	X15	Y15	Z15	X16	Y16	Z16	X17	Y17	Z17	X18	Y18	Z18	X19	Y19	Z19	X20	Y20	Z20	X21	Y21	Z21	X22	Y22	Z22	X23	Y23	Z23	X24	Y24	Z24	X25	Y25	Z25	X26	Y26	Z26	X27	Y27	Z27	X28	Y28	Z28	X29	Y29	Z29	X30	Y30	Z30	X31	Y31	Z31	X32	Y32	Z32	X33	Y33	Z33	

1	27.700000000000	757.323728969446	95.292882101654	538.964797472052	548.535518958808	998.048521625474	490.875571011222	771.816474968511	1409.471476136475	298.436174242586	850.588251672908	1344.400530535888	472.978451768377	756.093699706344	1437.328973004325	629.544382869310	746.650412364819	1479.812352015920	447.186297906883	776.105123768128	934.115006272804	615.753543406646	765.953896048663	944.657656803235	341.841069043408	828.509550181579	737.152076594317	566.344280074075	756.685804330545	617.661572951873	622.620331109967	830.666026418812	573.854368866759	534.570940657485	836.307980247592	479.209211918522	536.543049479347	828.006462561666	746.650001893115	357.390994671208	761.189707992551	629.086280319441	273.915435747282	856.628257526857	552.689656831033	330.244204149701	858.554498020216	466.905351133196	316.241606863259	792.566810182093	406.512616347985	300.171570774065	652.901320113182	362.764591997688	248.159797444004	648.757549720394	226.578379322015	284.311773723149	794.216081726574	391.668800231173	540.392660328297	715.669196280117	294.266583401194	604.387892274722	737.655001296356	199.032656989391	534.644526945823	582.612564085696	43.400879810223	512.707576559417	669.980743977084	36.983203372494	582.031856471040	877.712193201818	40.720949820505	560.501239593246	465.303312116038	147.918350039856	322.434744123678	518.430803942445	114.735404419624	233.489676524738	624.057163708151	126.460375141138	247.570754958443	705.584267416112	31.648037413520	201.055341679232	816.520522572211	1062.704588606294	180.127170120128	1015.472412223158	888.724084505450	188.905730473305	647.926053006614	1116.176310805747	775.250247425412	717.815421796187	861.320101461891	804.481900055894	
2	27.720785714286	753.272736553897	95.186797226658	538.784752611021	547.461374380035	994.668609718798	495.093648087517	768.284323250915	1406.356999211042	300.161858898983	849.550812783975	1340.923995242996	473.449100246823	757.823056697043	1433.752944120486	631.697060558031	745.637853351724	1476.795130933119	449.664557796120	776.331504530404	931.531714425255	617.473494274516	763.844049988700	942.440229819754	343.629082306473	829.980195221204	735.329027352250	566.814284310475	759.730169486829	614.974944273842	622.622676967326	833.326215152710	572.292534242244	533.552791339578	839.501103707901	476.780876728006	534.878214573077	831.350559046345	749.491709551310	361.929344247939	770.824808711736	630.072254659544	277.723722797981	867.917180829264	556.899349753515	335.849646557341	872.455015024701	470.195647037284	321.293236743677	805.584010115299	408.904903421562	304.889545311928	664.751268303241	367.789436563177	253.362924862812	658.406835804253	231.554709975213	289.212497614552	795.914805511884	389.398362180508	539.170555839633	716.273178443674	293.183177189315	603.735148779931	735.931528960237	197.781708087910	533.898620120850	578.558503612836	43.621105606204	512.695775169246	665.935011037795	37.048044867114	582.019593325058	873.596442846997	40.334396796712	560.563479151300	473.525378492329	156.858889938438	327.825399575589	525.536630191715	123.647381245313	238.154442806747	631.626204870861	131.778683606525	252.065102123484	709.543717461526	33.147956789433	203.304017746643	798.786287022878	1056.363220785559	186.345276282659	974.645944931729	865.726896834918	195.155386194325	666.105811605443	1109.514604079301	780.214821052380	756.004514993122	863.859126873546	807.547255805978	
3	27.741571428571	749.096671794523	95.087818494904	538.617956209079	546.364623304490	991.384267036032	499.281523446694	764.655505762323	1403.349639209409	301.905529462838	848.511077170823	1337.554058274915	473.883312325769	759.614382850890	1430.271133529192	633.849193708927	744.625648663156	1473.859699744483	452.160302780111	776.521247380327	928.990719419229	619.160157350494	761.653315890047	940.241459001164	345.416801559940	831.327462779908	733.489101766772	567.308115681353	762.583555788019	612.348418405099	622.660194423940	835.780908614769	570.736888847273	532.588559446898	842.449232445465	474.391933213136	533.287802846833	834.562830862275	752.424108048829	366.397870925102	780.283093367137	631.171115885043	281.551471802077	879.003603478957	561.263835633552	341.461964691539	886.212178165940	473.722285565157	326.406420156499	818.677919202372	411.424626545347	309.666111974870	676.815358264394	372.358426317904	258.594831172325	668.818481928500	236.028657782502	294.178027919707	797.382009803212	387.165824716128	537.999456338099	716.663151004543	292.123280328677	603.115699471977	734.041479522011	196.569934613386	533.193889826314	574.381017813808	43.857035359324	512.689163660386	661.750093973819	37.121273856526	582.010572170538	869.348616614996	39.949979688544	560.622298656897	482.768918695530	164.254560531157	333.147868801704	533.945831308381	131.285711095306	242.830224977387	640.427469707820	136.601112310302	256.685919946917	715.553302244760	34.807092181150	205.867486122815	780.237117580311	1050.336687131247	192.654448026421	932.022945878643	843.588093264126	201.628934564897	685.312208161362	1103.077007338957	784.977214473906	795.830787128365	867.752721858022	809.908291552748	
4	27.762357142857	744.879092295130	95.004667336061	538.476285595893	545.271678773072	988.394469055076	503.279241507852	761.015582861316	1400.637905115110	303.607692413696	847.510949117273	1334.483575088352	474.234083853554	761.458932959948	1427.081086403501	635.907181498830	743.655892009489	1471.173113494881	454.583389398913	776.650200644951	926.621065703358	620.734087708633	759.398166988632	938.172262208261	347.142975010965	832.430105482906	731.710524762897	567.809514787989	765.026649115166	609.918687917449	622.744593051641	837.815871915393	569.257115504640	531.735661968659	844.898255906645	472.157659678892	531.863806697398	837.451727079056	755.392354869976	370.613053065787	789.118314544014	632.401249889764	285.263166155158	889.357715950518	565.691203996414	346.881186672101	899.221438586695	477.470322777762	331.420123068769	831.389152432103	414.052795581753	314.342972352831	688.787690034328	376.101008099512	263.654207807001	680.018987645455	239.637379129668	299.028363013329	798.429472220552	385.083485070684	536.948179894008	716.702635071056	291.145064815849	602.571751056292	731.956776012101	195.466200217451	532.575474992664	570.157676734333	44.112804482178	512.692943503377	657.502532060270	37.206671836535	582.007244108590	865.049647356100	39.583350910060	560.674939386275	493.281232126107	169.169730021260	338.142476395471	544.057150902676	136.839980708489	247.321483098358	650.785571142301	140.554496620248	261.294175074498	724.380473744422	36.671697631247	208.772327640154	761.157404129543	1045.076667534212	198.841036193653	888.407814278618	823.593972246850	208.188212063139	705.342847331336	1097.292316378038	789.260109077080	836.519332938458	873.633217863317	811.079396405441	
5	27.783142857143	740.677292437434	94.945104962511	538.370260821961	544.204207475594	985.886811699123	506.969019306644	757.430563976674	1398.396838860314	305.218855028803	846.588939356680	1331.887320993267	474.452939806944	763.370469211997	1424.367483564013	637.783595408133	742.766139244358	1468.888141698986	456.858107697170	776.701126431064	924.543854877061	622.133152905453	757.109561723321	936.364881237507	348.748990555008	833.178269871748	730.069417274625	568.306485825461	766.863577262987	607.808813843416	622.891774606068	839.237293886678	567.918497544629	531.045254102401	846.619119103515	470.178531543939	530.685884676742	839.853178193123	758.360683278620	374.432718685460	796.957713359858	633.783682819272	288.744707938594	898.533989675466	570.105545236342	351.946541395743	910.979087727666	481.433079966634	336.201557381060	843.347204826936	416.781966802448	318.784662749646	700.462066328225	378.711737138863	268.347147961291	692.082941160798	242.101220555941	303.595885695624	798.881751760367	383.253254525248	536.078005139458	716.262379440812	290.302832589857	602.143669762426	729.639157609228	194.531779872053	532.081907912667	565.939317770941	44.393781756433	512.710638624268	653.246122150972	37.308258074531	582.012587662626	860.753949137013	39.246762215853	560.720284266540	505.358198125199	170.908334182206	342.579426384100	556.262939905048	139.706282140080	251.447045976453	663.019614201444	143.333345741875	265.745321487369	736.632332265937	38.735604567306	211.999313139650	741.772264381629	1041.009481419711	204.711623069269	844.527492323389	806.826028015214	214.720248982644	726.042677614286	1092.575442271165	792.833159473364	877.372733298758	882.110771568757	810.623744822202	
